<svg width="85" height="85" viewBox="0 0 85 85" fill="none" xmlns="http://www.w3.org/2000/svg">
<rect width="85" height="85" rx="42.5" fill="#452B3B"/>
<path d="M46.4733 14.3724C45.5942 13.4937 44.4022 13 43.1592 13C41.9163 13 40.7242 13.4937 39.8451 14.3724L8.68734 45.5256C8.46942 45.7435 8.29657 46.0022 8.17863 46.2869C8.0607 46.5716 8 46.8768 8 47.1849C8 47.4931 8.0607 47.7983 8.17863 48.083C8.29657 48.3677 8.46942 48.6264 8.68734 48.8443C9.12743 49.2844 9.72432 49.5316 10.3467 49.5316C10.6549 49.5316 10.96 49.4709 11.2448 49.353C11.5295 49.2351 11.7882 49.0622 12.0061 48.8443L43.1592 17.6865L74.3123 48.8443C74.7524 49.2844 75.3493 49.5316 75.9717 49.5316C76.5941 49.5316 77.191 49.2844 77.6311 48.8443C78.0712 48.4042 78.3184 47.8073 78.3184 47.1849C78.3184 46.5625 78.0712 45.9657 77.6311 45.5256L66.5967 34.4959V19.0599C66.5967 18.4383 66.3498 17.8422 65.9102 17.4027C65.4707 16.9631 64.8746 16.7162 64.253 16.7162H59.5655C58.9439 16.7162 58.3477 16.9631 57.9082 17.4027C57.4686 17.8422 57.2217 18.4383 57.2217 19.0599V25.1209L46.4733 14.3724Z" fill="white"/>
<path d="M26.9318 68V27.2727H31.8636V45.4091H53.5795V27.2727H58.5114V68H53.5795V49.7841H31.8636V68H26.9318Z" fill="white"/>
</svg>