<?xml version="1.0" encoding="UTF-8" standalone="no"?>
<!DOCTYPE svg PUBLIC "-//W3C//DTD SVG 1.1//EN" "http://www.w3.org/Graphics/SVG/1.1/DTD/svg11.dtd">
<!-- Created with Vectornator (http://vectornator.io/) -->
<svg height="100%" stroke-miterlimit="10" style="fill-rule:nonzero;clip-rule:evenodd;stroke-linecap:round;stroke-linejoin:round;" version="1.1" viewBox="0 0 500 130" width="100%" xml:space="preserve" xmlns="http://www.w3.org/2000/svg" xmlns:vectornator="http://vectornator.io" xmlns:xlink="http://www.w3.org/1999/xlink">
<defs/>
<g id="Layer-1" vectornator:layerName="Layer 1">
<g opacity="1" vectornator:layerName="Group 3">
<g fill="#ffffff" opacity="1" stroke="#000000" stroke-linecap="butt" stroke-linejoin="round" stroke-width="1.92544" vectornator:layerName="Text 1">
<path d="M72.5481 91.7217L72.5481 116.177L61.2123 116.177L61.2123 61.3937L72.5481 61.3937L72.5481 82.2813L93.9561 82.2813L93.9561 61.3937L105.329 61.3937L105.329 116.177L93.9561 116.177L93.9561 91.7217L72.5481 91.7217Z"/>
<path d="M158.44 66.1139C163.966 71.1437 166.728 78.6762 166.728 88.7112C166.728 98.5479 163.966 106.08 158.44 111.308C154.302 115.57 148.318 117.701 140.489 117.701C132.659 117.701 126.675 115.57 122.537 111.308C116.987 106.08 114.212 98.5479 114.212 88.7112C114.212 78.6762 116.987 71.1437 122.537 66.1139C126.675 61.8521 132.659 59.7212 140.489 59.7212C148.318 59.7212 154.302 61.8521 158.44 66.1139ZM140.489 69.4217C135.954 69.4217 132.337 71.0942 129.636 74.4392C126.935 77.7842 125.585 82.5415 125.585 88.7112C125.585 94.8808 126.935 99.6381 129.636 102.983C132.337 106.328 135.954 108.001 140.489 108.001C145.023 108.001 148.622 106.328 151.286 102.983C153.949 99.6381 155.281 94.8808 155.281 88.7112C155.281 82.5663 153.949 77.8152 151.286 74.4578C148.622 71.1004 145.023 69.4217 140.489 69.4217Z"/>
<path d="M186.91 61.3937L186.91 106.328L214.041 106.328L214.041 116.177L175.462 116.177L175.462 61.3937L186.91 61.3937Z"/>
<path d="M221.066 61.3937L232.439 61.3937L232.439 116.177L221.066 116.177L221.066 61.3937Z"/>
<path d="M284.509 69.5332C286.417 72.2587 287.718 75.2073 288.412 78.3788C289.105 81.5504 289.452 84.5733 289.452 87.4475C289.452 94.7321 287.99 100.902 285.067 105.956C281.102 112.77 274.982 116.177 266.706 116.177L243.106 116.177L243.106 61.3937L266.706 61.3937C270.101 61.4433 272.926 61.8397 275.18 62.583C279.021 63.8467 282.131 66.1634 284.509 69.5332ZM275.218 75.3684C273.458 72.395 269.977 70.9084 264.774 70.9084L254.218 70.9084L254.218 106.663L264.774 106.663C270.175 106.663 273.941 103.999 276.072 98.6718C277.237 95.748 277.819 92.2668 277.819 88.228C277.819 82.653 276.952 78.3665 275.218 75.3684Z"/>
<path d="M326.693 61.3937L346.094 116.177L333.681 116.177L330.15 104.916L309.968 104.916L306.177 116.177L294.21 116.177L313.759 61.3937L326.693 61.3937ZM320.115 73.9189L313.053 95.4755L326.953 95.4755L320.115 73.9189Z"/>
<path d="M391.809 106.514L391.809 116.177L349.179 116.177L349.179 106.514L377.463 71.0942L349.885 71.0942L349.885 61.3937L391.735 61.3937L391.735 70.5739L363.079 106.514L391.809 106.514Z"/>
<path d="M441.389 106.328L441.389 116.177L399.874 116.177L399.874 61.3937L440.051 61.3937L440.051 71.0942L411.061 71.0942L411.061 82.7273L437.673 82.7273L437.673 92.242L411.061 92.242L411.061 106.328L441.389 106.328Z"/>
</g>
<g opacity="1" vectornator:layerName="Group 2">
<g opacity="1" vectornator:layerName="Group 1">
<path d="M12.0157 63.957L250 11.2366" fill="none" opacity="1" stroke="#000000" stroke-linecap="butt" stroke-linejoin="round" stroke-width="3.5392" vectornator:layerName="Line 1"/>
<path d="M487.984 63.957L250 11.2366" fill="none" opacity="1" stroke="#000000" stroke-linecap="butt" stroke-linejoin="round" stroke-width="3.5392" vectornator:layerName="Line 2"/>
</g>
<path d="M249.471 11.2366L250.529 11.2366" fill="none" opacity="1" stroke="#000000" stroke-linecap="butt" stroke-linejoin="round" stroke-width="3.41585" vectornator:layerName="Line 1"/>
</g>
</g>
</g>
</svg>
